<svg xmlns="http://www.w3.org/2000/svg" width="4010.667" height="1877.333" viewBox="0 0 3008 1408"><path d="M2189.5 643.4c-22.4 3.8-34.2 9.3-45.7 21.4-9.5 9.9-13.8 21.2-13.8 35.7 0 29.2 20.8 45.4 69.5 54.4 45.2 8.3 56.9 11.6 70.7 20.4 6.2 3.9 8.3 5.9 10.7 10 8.3 14.8 6 33-5.6 44.4-14.5 14.3-45.3 21.2-77.8 17.4-19.5-2.3-38-9.3-51.1-19.3-14.2-10.9-14.4-11-18.1-10.3-6.7 1.2-7 9.5-.5 15.6 4.5 4.2 11.8 9.9 12.7 9.9.4 0 3.7 1.8 7.3 4 9.2 5.4 22.7 10.4 35.7 13.1 9.5 2.1 13.8 2.4 32 2.4 19.8 0 21.7-.2 32.5-2.9 27.3-6.8 42.6-17.2 50.8-34.3 3.2-6.9 3.6-8.6 4-18.2.4-8.7.1-12-1.6-18-5.3-18.6-20.4-30.4-49.6-38.6-12.7-3.6-16.2-4.4-45.2-10-21.3-4.1-27.8-6.1-40.1-12.1-13.6-6.7-19.2-14.6-19.5-27.6-.2-15.1 4.7-24 18.7-33.2 14.2-9.4 41.8-13.7 65-10.2 11.4 1.8 20.2 4 28.5 7.2 7.1 2.8 22 11.3 22 12.6 0 .4 1.4 1.5 3.1 2.4 5.2 2.6 11.9-.3 11.9-5.3 0-4.8-2.9-8-12.2-13.9-14-8.9-22.5-12.4-37.1-15.5-12.2-2.6-45.4-3.4-57.2-1.5M935.7 646c-1.4 1.1-5.5 7.3-9 13.8-10.7 19.4-24.7 45.8-24.7 46.5 0 .3-2.5 5.3-5.6 10.9-5.7 10.3-11.4 21.3-24.6 46.8-3.9 7.4-7.4 13.9-7.8 14.5-1.1 1.4-19.6 36.7-29.6 56.5-4.6 9-8.4 17.4-8.4 18.5.1 5.1 6.6 8.3 11.7 5.8 3.2-1.5 3.7-2.3 14.4-23.3 3.9-7.4 8.3-16 10-19 2.6-4.8 8.2-15.5 25.4-48.5 2.3-4.4 6.4-12.3 9.2-17.5s8.3-15.8 12.3-23.5 11.5-22.3 16.8-32.5 10.7-20.9 12.1-23.8c1.4-2.8 2.7-5.2 3-5.2 1 0 3.9 5.5 32.6 60.5 8.9 17 19.7 37.4 23.9 45.3 4.2 7.8 7.6 14.5 7.6 14.8s.8 1.8 1.9 3.2c1 1.5 5 8.8 8.8 16.2 16.2 31.4 26.4 49.6 28.8 51.7 5.1 4.5 13.6 1.6 13.5-4.5-.1-1.5-1.1-4.6-2.3-6.9s-3.9-7.4-6.1-11.5c-2.1-4-5.5-10.2-7.6-13.8s-6.4-11.7-9.7-18c-11.8-22.6-17.7-33.6-21.3-40-2.1-3.6-9.3-17.1-16-30s-13.8-26.4-15.8-30c-5.2-9.5-15.4-28.8-22.1-42-3.2-6.3-7.1-12.7-8.6-14.3-3.4-3.4-9-3.7-12.8-.7M1137.2 645.7c-6.5 3.2-6.2-2.3-6.2 108.6 0 100.1 0 100.4 2.1 103.1 1.6 2 2.9 2.6 6 2.6 5.1 0 7.5-2.5 8.3-8.6.3-2.7.4-44.2.2-92.2-.3-47.9-.1-87.2.3-87.2.7 0 17.1 18.3 29.1 32.5 7 8.3 14.4 16.9 27.5 31.9 6.6 7.6 15.2 17.5 19 22 8.2 9.7 17.5 20.5 25.6 29.6 29 32.9 50.4 57.8 55.3 64.2 5.2 6.9 11.3 9.3 17 6.7 5.5-2.6 5.4 1 5.1-107.4-.2-55-.4-100.6-.4-101.3-.1-.6-1-2.1-2.1-3.2-2.9-2.9-8.4-2.7-11.5.5l-2.5 2.4v91.2c0 84.8-.1 91-1.7 89.8-.9-.8-12.4-13.8-25.6-28.9s-24.7-28.2-25.6-29.1-6.1-6.9-11.6-13.5c-5.5-6.5-12.5-14.6-15.5-17.9-3-3.4-10.3-11.7-16.1-18.6-25.4-29.6-37.3-43.4-55.2-63.6-6.5-7.3-11.9-13.3-12-13.3s-1.6-.4-3.3-.9c-2.3-.6-4-.5-6.2.6M1939.7 645.8c-2 1.2-5.6 6.8-12.1 19.2-5.1 9.6-11.7 22.2-14.8 28-3 5.8-9 17.2-13.3 25.5-4.3 8.2-9 17.2-10.5 20-5.1 9.2-10.1 18.8-21.3 40.5-6.1 11.8-12 23.1-13.3 25.1-1.2 2-4.5 8-7.3 13.5-2.8 5.4-7.8 14.8-11.1 20.9-7.3 13.7-7.9 18.4-2.3 21.4 5.6 2.9 10-.2 15.2-10.8 2.1-4.2 8.5-16.4 14.3-27.1s13.3-24.9 16.8-31.5c3.4-6.6 6.5-12.5 7-13 .4-.6 4.2-7.8 8.4-16 4.2-8.3 9.9-19.3 12.7-24.5 6.2-11.5 30.3-58.4 33.8-65.8 1.4-2.9 3-5.1 3.6-4.9.5.2 4.1 6.6 8 14.3 3.9 7.6 9.6 18.6 12.7 24.4 12 22.7 17 32.2 33.8 64.5 3.5 6.6 9.7 18.3 13.8 26s9.6 18 12.2 23c4.5 8.7 8.3 15.7 15.8 29.5 4.9 9.1 7.8 12 12 12 4.8 0 7-1.5 7.7-5.4.6-2.7-.2-4.9-3.9-12.1-2.6-4.9-5-9.3-5.5-9.9s-3.9-7-7.6-14.1c-7.4-14.3-12.4-23.5-13.5-25-.4-.6-3.9-7.1-7.7-14.5-11.8-22.5-23.3-44.4-24.3-46-.5-.8-3.2-6-6.1-11.5-2.8-5.5-7.5-14.5-10.4-20s-6.8-12.9-8.7-16.5c-1.8-3.6-4-7.6-4.7-9-2.4-4.3-2.9-5.3-7.7-14.5-2.5-5-5.5-10.4-6.5-12.1-3.2-5.3-9.9-6.9-15.2-3.6M2613.5 646.5c-4.7 4.6-4.6 4.7 18.1 33.6 9.3 11.8 23 29.5 30.4 39.3s17.8 23.3 23 30c5.2 6.6 12.1 15.6 15.3 19.8l5.7 7.7v77.3l2.9 2.9c4 4 9.3 4.1 11.8.2 1.6-2.5 1.8-6.4 2.1-41.6l.3-38.8 3.7-5.7c3.7-5.7 8-11.5 16.9-22.9 8.7-11.1 26.7-34.4 29.6-38.1 11.4-15.1 28.5-37 34.9-44.9 4.3-5.2 8.1-10.5 8.4-11.9 1-3.8-1.4-7.3-5.8-8.6-5.3-1.6-6.9-.3-20.5 17.3-6.2 7.9-11.9 15.1-12.6 15.9-1.5 1.8-16.9 21.7-21.7 28.1-1.9 2.5-6.3 8.4-9.8 13-3.4 4.6-7.5 9.9-9 11.8-7 8.7-12.6 16.2-17.3 22.8-2.8 4-5.4 7.3-5.8 7.3-.3 0-1.5-1.5-2.7-3.3-1.1-1.7-4.8-6.6-8.1-10.7s-7.3-9.3-8.9-11.6c-4.3-6-31.5-41.7-48.9-63.9-3-3.9-8.2-10.6-11.5-15-3.4-4.4-7.3-9-8.8-10.2-3.7-3-8.6-3-11.7.2M212 646.1c-3.2 1.3-4 2.6-4 7 0 7.1-1.5 6.9 46.8 6.9H298v195.7l2.3 2.1c3.1 2.9 8.7 2.9 11.3.1 1.8-2 1.9-5.5 2.4-99.8l.5-97.6 42.7-.5c38.7-.5 42.9-.7 44.8-2.2 3-2.6 2.7-8.1-.6-10.7-2.7-2.1-3.1-2.1-94.8-2-58.1 0-93 .4-94.6 1M478.1 647.6c-2.1 2.7-2.1 3-2.1 105.4v102.7l2.3 2.1c3.4 3.2 8.9 3 11.6-.4 2.1-2.7 2.1-3 2.1-105.4V649.3l-2.3-2.1c-3.4-3.2-8.9-3-11.6.4M578.3 646c-4.4 1.8-5.5 7.2-2.4 11.1l1.9 2.4 56.9.5 56.8.6 8 2.7c21.8 7.6 34.5 24.4 34.5 45.9 0 17.5-7.1 31.3-20.6 40.3-6.7 4.5-19 9.1-26.4 9.9-3 .4-23.7.8-46 1.1-40.1.4-40.5.4-42.2 2.5-2.8 3.4-2.3 8.4.9 11 2.7 2.1 3.3 2.1 40.7 1.9l38-.1 2.9 3.3c1.6 1.9 8.8 11.5 16 21.4 24.5 33.6 36.9 50 41.5 54.7 3.9 4.1 5.2 4.8 8.4 4.8 4.7 0 7.8-2.8 7.8-7.1 0-2.3-2-5.6-8.3-13.7-4.6-5.9-10.5-13.8-13.3-17.5-2.7-3.8-8.7-11.7-13.4-17.7-4.7-5.9-10.3-13.3-12.5-16.5-2.2-3.1-5.5-7.5-7.3-9.8-1.8-2.2-2.9-4.3-2.5-4.7s3-1.3 5.7-1.9c6.6-1.6 18.9-8.1 25.7-13.4 13.8-11 20.9-26.8 20.9-46.6 0-19.7-5.2-33.3-17.5-45.6-9.3-9.4-21.3-15.4-36.7-18.4-10-2-13.9-2.1-63-2-28.8 0-53.3.4-54.5.9M1600.2 647.3l-2.2 2.3v205.2l3.1 2.6 3.1 2.6h78.8c43.4 0 79.6-.3 80.5-.6 2.3-.9 4.7-6.1 3.9-8.7-.3-1.2-1.3-3-2.2-4-1.4-1.6-6.3-1.7-76.4-1.7H1614V649.3l-2.3-2.1c-3.2-3-8.7-2.9-11.5.1M2377.4 646.2c-2.8 1.3-4.3 4.7-3.7 8.1 1.1 5.7-1 5.5 59.3 6 47.6.4 56.4.7 61.9 2.1 10 2.6 18.3 7 24.8 13.3 23.7 22.8 16.6 63.6-13.5 77.6-13 6.1-17.6 6.6-64.5 6.9l-41.9.3-1.9 2.4c-2.3 2.8-2.4 7.8-.3 10.6 1.4 1.9 2.9 2 40.2 2.3 34.4.3 38.9.5 40.6 2 1 .9 5.7 6.9 10.4 13.2 35.3 47.5 49.6 66.1 51.5 67.5 2.9 2.1 9 1.9 10.9-.3 3.8-4.3 2.9-8.9-3.4-16.9-4.8-6-18-23.4-19.8-25.9-.8-1.2-5.8-7.7-11-14.4s-11.5-15-13.8-18.4c-2.4-3.3-5-6.8-5.8-7.7-.8-.8-1.4-1.8-1.4-2.1s2.6-1.1 5.8-1.7c17.6-3.9 34.5-17.2 41.9-32.9 4.9-10.5 6.6-19.5 6-31.7-.7-12.1-3.1-20.1-8.8-29.8-9.9-16.7-25.8-26.6-48.9-30.3-10.6-1.7-111.1-1.9-114.6-.2"/></svg>