<?xml version="1.0" standalone="no"?>
<!DOCTYPE svg PUBLIC "-//W3C//DTD SVG 20010904//EN"
 "http://www.w3.org/TR/2001/REC-SVG-20010904/DTD/svg10.dtd">
<svg version="1.0" xmlns="http://www.w3.org/2000/svg"
 width="3008.000000pt" height="1408.000000pt" viewBox="0 0 3008.000000 1408.000000"
 preserveAspectRatio="xMidYMid meet">

<g transform="translate(0.000000,1408.000000) scale(0.100000,-0.100000)"
fill="#000000" stroke="none">
<path d="M21895 7646 c-224 -38 -342 -93 -457 -214 -95 -99 -138 -212 -138
-357 0 -292 208 -454 695 -544 452 -83 569 -116 707 -204 62 -39 83 -59 107
-100 83 -148 60 -330 -56 -444 -145 -143 -453 -212 -778 -174 -195 23 -380 93
-511 193 -142 109 -144 110 -181 103 -67 -12 -70 -95 -5 -156 45 -42 118 -99
127 -99 4 0 37 -18 73 -40 92 -54 227 -104 357 -131 95 -21 138 -24 320 -24
198 0 217 2 325 29 273 68 426 172 508 343 32 69 36 86 40 182 4 87 1 120 -16
180 -53 186 -204 304 -496 386 -127 36 -162 44 -452 100 -213 41 -278 61 -401
121 -136 67 -192 146 -195 276 -2 151 47 240 187 332 142 94 418 137 650 102
114 -18 202 -40 285 -72 71 -28 220 -113 220 -126 0 -4 14 -15 31 -24 52 -26
119 3 119 53 0 48 -29 80 -122 139 -140 89 -225 124 -371 155 -122 26 -454 34
-572 15z"/>
<path d="M9357 7620 c-14 -11 -55 -73 -90 -138 -107 -194 -247 -458 -247 -465
0 -3 -25 -53 -56 -109 -57 -103 -114 -213 -246 -468 -39 -74 -74 -139 -78
-145 -11 -14 -196 -367 -296 -565 -46 -90 -84 -174 -84 -185 1 -51 66 -83 117
-58 32 15 37 23 144 233 39 74 83 160 100 190 26 48 82 155 254 485 23 44 64
123 92 175 28 52 83 158 123 235 40 77 115 223 168 325 53 102 107 209 121
238 14 28 27 52 30 52 10 0 39 -55 326 -605 89 -170 197 -374 239 -453 42 -78
76 -145 76 -148 0 -3 8 -18 19 -32 10 -15 50 -88 88 -162 162 -314 264 -496
288 -517 51 -45 136 -16 135 45 -1 15 -11 46 -23 69 -12 23 -39 74 -61 115
-21 40 -55 102 -76 138 -21 36 -64 117 -97 180 -118 226 -177 336 -213 400
-21 36 -93 171 -160 300 -67 129 -138 264 -158 300 -52 95 -154 288 -221 420
-32 63 -71 127 -86 143 -34 34 -90 37 -128 7z"/>
<path d="M11372 7623 c-65 -32 -62 23 -62 -1086 0 -1001 0 -1004 21 -1031 16
-20 29 -26 60 -26 51 0 75 25 83 86 3 27 4 442 2 922 -3 479 -1 872 3 872 7 0
171 -183 291 -325 70 -83 144 -169 275 -319 66 -76 152 -175 190 -220 82 -97
175 -205 256 -296 290 -329 504 -578 553 -642 52 -69 113 -93 170 -67 55 26
54 -10 51 1074 -2 550 -4 1006 -4 1013 -1 6 -10 21 -21 32 -29 29 -84 27 -115
-5 l-25 -24 0 -912 c0 -848 -1 -910 -17 -898 -9 8 -124 138 -256 289 -132 151
-247 282 -256 291 -9 9 -61 69 -116 135 -55 65 -125 146 -155 179 -30 34 -103
117 -161 186 -254 296 -373 434 -552 636 -65 73 -119 133 -120 133 -1 0 -16 4
-33 9 -23 6 -40 5 -62 -6z"/>
<path d="M19397 7622 c-20 -12 -56 -68 -121 -192 -51 -96 -117 -222 -148 -280
-30 -58 -90 -172 -133 -255 -43 -82 -90 -172 -105 -200 -51 -92 -101 -188
-213 -405 -61 -118 -120 -231 -133 -251 -12 -20 -45 -80 -73 -135 -28 -54 -78
-148 -111 -209 -73 -137 -79 -184 -23 -214 56 -29 100 2 152 108 21 42 85 164
143 271 58 107 133 249 168 315 34 66 65 125 70 130 4 6 42 78 84 160 42 83
99 193 127 245 62 115 303 584 338 658 14 29 30 51 36 49 5 -2 41 -66 80 -143
39 -76 96 -186 127 -244 120 -227 170 -322 338 -645 35 -66 97 -183 138 -260
41 -77 96 -180 122 -230 45 -87 83 -157 158 -295 49 -91 78 -120 120 -120 48
0 70 15 77 54 6 27 -2 49 -39 121 -26 49 -50 93 -55 99 -5 6 -39 70 -76 141
-74 143 -124 235 -135 250 -4 6 -39 71 -77 145 -118 225 -233 444 -243 460 -5
8 -32 60 -61 115 -28 55 -75 145 -104 200 -29 55 -68 129 -87 165 -18 36 -40
76 -47 90 -24 43 -29 53 -77 145 -25 50 -55 104 -65 121 -32 53 -99 69 -152
36z"/>
<path d="M26135 7615 c-47 -46 -46 -47 181 -336 93 -118 230 -295 304 -393 74
-98 178 -233 230 -300 52 -66 121 -156 153 -198 l57 -77 0 -386 0 -387 29 -29
c40 -40 93 -41 118 -2 16 25 18 64 21 416 l3 388 37 57 c37 57 80 115 169 229
87 111 267 344 296 381 114 151 285 370 349 449 43 52 81 105 84 119 10 38
-14 73 -58 86 -53 16 -69 3 -205 -173 -62 -79 -119 -151 -126 -159 -15 -18
-169 -217 -217 -281 -19 -25 -63 -84 -98 -130 -34 -46 -75 -99 -90 -118 -70
-87 -126 -162 -173 -228 -28 -40 -54 -73 -58 -73 -3 0 -15 15 -27 33 -11 17
-48 66 -81 107 -33 41 -73 93 -89 116 -43 60 -315 417 -489 639 -30 39 -82
106 -115 150 -34 44 -73 90 -88 102 -37 30 -86 30 -117 -2z"/>
<path d="M2120 7619 c-32 -13 -40 -26 -40 -70 0 -71 -15 -69 468 -69 l432 0 0
-978 0 -979 23 -21 c31 -29 87 -29 113 -1 18 20 19 55 24 998 l5 976 427 5
c387 5 429 7 448 22 30 26 27 81 -6 107 -27 21 -31 21 -948 20 -581 0 -930 -4
-946 -10z"/>
<path d="M4781 7604 c-21 -27 -21 -30 -21 -1054 l0 -1027 23 -21 c34 -32 89
-30 116 4 21 27 21 30 21 1054 l0 1027 -23 21 c-34 32 -89 30 -116 -4z"/>
<path d="M5783 7620 c-44 -18 -55 -72 -24 -111 l19 -24 569 -5 568 -6 80 -27
c218 -76 345 -244 345 -459 0 -175 -71 -313 -206 -403 -67 -45 -190 -91 -264
-99 -30 -4 -237 -8 -460 -11 -401 -4 -405 -4 -422 -25 -28 -34 -23 -84 9 -110
27 -21 33 -21 407 -19 l380 1 29 -33 c16 -19 88 -115 160 -214 245 -336 369
-500 415 -547 39 -41 52 -48 84 -48 47 0 78 28 78 71 0 23 -20 56 -83 137 -46
59 -105 138 -133 175 -27 38 -87 117 -134 177 -47 59 -103 133 -125 165 -22
31 -55 75 -73 98 -18 22 -29 43 -25 47 4 4 30 13 57 19 66 16 189 81 257 134
138 110 209 268 209 466 0 197 -52 333 -175 456 -93 94 -213 154 -367 184
-100 20 -139 21 -630 20 -288 0 -533 -4 -545 -9z"/>
<path d="M16002 7607 l-22 -23 0 -1026 0 -1026 31 -26 31 -26 788 0 c434 0
796 3 805 6 23 9 47 61 39 87 -3 12 -13 30 -22 40 -14 16 -63 17 -764 17
l-748 0 0 978 0 979 -23 21 c-32 30 -87 29 -115 -1z"/>
<path d="M23774 7618 c-28 -13 -43 -47 -37 -81 11 -57 -10 -55 593 -60 476 -4
564 -7 619 -21 100 -26 183 -70 248 -133 237 -228 166 -636 -135 -776 -130
-61 -176 -66 -645 -69 l-419 -3 -19 -24 c-23 -28 -24 -78 -3 -106 14 -19 29
-20 402 -23 344 -3 389 -5 406 -20 10 -9 57 -69 104 -132 353 -475 496 -661
515 -675 29 -21 90 -19 109 3 38 43 29 89 -34 169 -48 60 -180 234 -198 259
-8 12 -58 77 -110 144 -52 67 -115 150 -138 184 -24 33 -50 68 -58 77 -8 8
-14 18 -14 21 0 3 26 11 58 17 176 39 345 172 419 329 49 105 66 195 60 317
-7 121 -31 201 -88 298 -99 167 -258 266 -489 303 -106 17 -1111 19 -1146 2z"/>
</g>
</svg>
